<svg width="171" height="52" viewBox="0 0 171 52" fill="none" xmlns="http://www.w3.org/2000/svg">
<rect x="45.0278" y="20.4121" width="8.62922" height="8.62922" transform="rotate(45 45.0278 20.4121)" fill="#7D2FE0"/>
<rect x="25.7598" y="1.14404" width="22.1139" height="8.62922" transform="rotate(45 25.7598 1.14404)" fill="#7D2FE0"/>
<rect x="25.3337" y="51.8043" width="22.1139" height="8.62922" transform="rotate(-135 25.3337 51.8043)" fill="#7D2FE0"/>
<rect x="25.5654" y="0.948364" width="8.62922" height="22.4417" transform="rotate(45 25.5654 0.948364)" fill="#7D2FE0"/>
<rect x="6.10181" y="20.4121" width="8.62922" height="8.62922" transform="rotate(45 6.10181 20.4121)" fill="#7D2FE0"/>
<rect x="25.7507" y="20.4121" width="8.62922" height="8.62922" transform="rotate(45 25.7507 20.4121)" fill="#7D2FE0"/>
<rect x="25.5278" y="52" width="8.62922" height="22.4417" transform="rotate(-135 25.5278 52)" fill="#7D2FE0"/>
<path d="M70.6352 32.3086L74.8539 16.9805H80.1449L73.7289 36H70.5297L70.6352 32.3086ZM67.7348 16.9805L71.9711 32.3262L72.059 36H68.8422L62.4262 16.9805H67.7348ZM82.5827 26.6836V26.3145C82.5827 24.9199 82.7819 23.6367 83.1803 22.4648C83.5787 21.2812 84.1588 20.2559 84.9205 19.3887C85.6823 18.5215 86.6198 17.8477 87.733 17.3672C88.8463 16.875 90.1237 16.6289 91.5651 16.6289C93.0065 16.6289 94.2897 16.875 95.4147 17.3672C96.5397 17.8477 97.483 18.5215 98.2448 19.3887C99.0182 20.2559 99.6041 21.2812 100.003 22.4648C100.401 23.6367 100.6 24.9199 100.6 26.3145V26.6836C100.6 28.0664 100.401 29.3496 100.003 30.5332C99.6041 31.7051 99.0182 32.7305 98.2448 33.6094C97.483 34.4766 96.5455 35.1504 95.4323 35.6309C94.319 36.1113 93.0416 36.3516 91.6002 36.3516C90.1588 36.3516 88.8756 36.1113 87.7506 35.6309C86.6373 35.1504 85.694 34.4766 84.9205 33.6094C84.1588 32.7305 83.5787 31.7051 83.1803 30.5332C82.7819 29.3496 82.5827 28.0664 82.5827 26.6836ZM87.6452 26.3145V26.6836C87.6452 27.4805 87.7155 28.2246 87.8561 28.916C87.9967 29.6074 88.2194 30.2168 88.5241 30.7441C88.8405 31.2598 89.2506 31.6641 89.7545 31.957C90.2584 32.25 90.8737 32.3965 91.6002 32.3965C92.3034 32.3965 92.9069 32.25 93.4108 31.957C93.9147 31.6641 94.319 31.2598 94.6237 30.7441C94.9284 30.2168 95.151 29.6074 95.2916 28.916C95.444 28.2246 95.5202 27.4805 95.5202 26.6836V26.3145C95.5202 25.541 95.444 24.8145 95.2916 24.1348C95.151 23.4434 94.9225 22.834 94.6061 22.3066C94.3014 21.7676 93.8971 21.3457 93.3932 21.041C92.8893 20.7363 92.2799 20.584 91.5651 20.584C90.8502 20.584 90.2409 20.7363 89.737 21.041C89.2448 21.3457 88.8405 21.7676 88.5241 22.3066C88.2194 22.834 87.9967 23.4434 87.8561 24.1348C87.7155 24.8145 87.6452 25.541 87.6452 26.3145ZM110.034 21.1289V36H104.972V16.9805H109.735L110.034 21.1289ZM115.765 16.8574L115.677 21.5508C115.431 21.5156 115.132 21.4863 114.78 21.4629C114.44 21.4277 114.13 21.4102 113.849 21.4102C113.134 21.4102 112.513 21.5039 111.985 21.6914C111.47 21.8672 111.036 22.1309 110.684 22.4824C110.345 22.834 110.087 23.2617 109.911 23.7656C109.747 24.2695 109.653 24.8438 109.63 25.4883L108.61 25.1719C108.61 23.9414 108.733 22.8105 108.979 21.7793C109.225 20.7363 109.583 19.8281 110.052 19.0547C110.532 18.2812 111.118 17.6836 111.809 17.2617C112.501 16.8398 113.292 16.6289 114.182 16.6289C114.464 16.6289 114.751 16.6523 115.044 16.6992C115.337 16.7344 115.577 16.7871 115.765 16.8574ZM129.61 16.9805V20.5664H118.536V16.9805H129.61ZM121.278 12.2871H126.341V30.2695C126.341 30.8203 126.411 31.2422 126.552 31.5352C126.704 31.8281 126.927 32.0332 127.22 32.1504C127.513 32.2559 127.882 32.3086 128.327 32.3086C128.644 32.3086 128.925 32.2969 129.171 32.2734C129.429 32.2383 129.646 32.2031 129.821 32.168L129.839 35.8945C129.405 36.0352 128.937 36.1465 128.433 36.2285C127.929 36.3105 127.372 36.3516 126.763 36.3516C125.65 36.3516 124.677 36.1699 123.845 35.8066C123.025 35.4316 122.392 34.834 121.946 34.0137C121.501 33.1934 121.278 32.1152 121.278 30.7793V12.2871ZM142.507 36.3516C141.031 36.3516 139.706 36.1172 138.535 35.6484C137.363 35.168 136.367 34.5059 135.546 33.6621C134.738 32.8184 134.117 31.8398 133.683 30.7266C133.249 29.6016 133.033 28.4062 133.033 27.1406V26.4375C133.033 24.9961 133.238 23.6777 133.648 22.4824C134.058 21.2871 134.644 20.25 135.406 19.3711C136.179 18.4922 137.117 17.8184 138.218 17.3496C139.32 16.8691 140.562 16.6289 141.945 16.6289C143.292 16.6289 144.488 16.8516 145.531 17.2969C146.574 17.7422 147.447 18.375 148.15 19.1953C148.865 20.0156 149.404 21 149.767 22.1484C150.13 23.2852 150.312 24.5508 150.312 25.9453V28.0547H135.195V24.6797H145.337V24.293C145.337 23.5898 145.208 22.9629 144.951 22.4121C144.704 21.8496 144.329 21.4043 143.826 21.0762C143.322 20.748 142.677 20.584 141.892 20.584C141.224 20.584 140.65 20.7305 140.169 21.0234C139.689 21.3164 139.296 21.7266 138.992 22.2539C138.699 22.7812 138.476 23.4023 138.324 24.1172C138.183 24.8203 138.113 25.5938 138.113 26.4375V27.1406C138.113 27.9023 138.218 28.6055 138.429 29.25C138.652 29.8945 138.962 30.4512 139.361 30.9199C139.771 31.3887 140.263 31.752 140.837 32.0098C141.423 32.2676 142.085 32.3965 142.824 32.3965C143.738 32.3965 144.587 32.2207 145.372 31.8691C146.169 31.5059 146.855 30.9609 147.429 30.2344L149.89 32.9062C149.492 33.4805 148.947 34.0312 148.255 34.5586C147.576 35.0859 146.755 35.5195 145.794 35.8594C144.833 36.1875 143.738 36.3516 142.507 36.3516ZM158.533 16.9805L161.679 22.7637L164.914 16.9805H170.31L164.931 26.2793L170.556 36H165.142L161.714 29.8828L158.287 36H152.873L158.498 26.2793L153.119 16.9805H158.533Z" fill="#EFEFEF"/>
</svg>
